<?xml version="1.0" encoding="utf-8"?>
<!-- Generator: Adobe Illustrator 28.2.0, SVG Export Plug-In . SVG Version: 6.00 Build 0)  -->
<svg version="1.1" id="Layer_1" xmlns="http://www.w3.org/2000/svg" xmlns:xlink="http://www.w3.org/1999/xlink" x="0px" y="0px"
	 viewBox="0 0 334.42 337.74" style="enable-background:new 0 0 334.42 337.74;" xml:space="preserve">
<style type="text/css">
	.st0{fill:#FFFFFF;}
</style>
<g id="y8YKNv.tif">
	<g>
		<path class="st0" d="M272.71,143.44c1.89,0,3.45,0,5,0c24.13,0.04,44.63,14.18,53.22,36.73c2.46,6.45,3.47,13.18,3.47,20.07
			c0,26.91,0.07,53.83-0.02,80.74c-0.09,27.46-18.02,49.7-44.81,55.59c-3.63,0.8-7.43,1.11-11.16,1.11
			c-74.08,0.06-148.15,0.07-222.23,0.03c-25.9-0.01-48.34-17.6-54.44-42.77c-1.11-4.57-1.6-9.39-1.63-14.1
			c-0.15-26.83-0.1-53.66-0.06-80.49c0.04-25.97,16.09-47.59,41.09-54.75c5.36-1.53,11.15-1.69,16.77-2.06
			c2.43-0.16,3.22-0.59,3.21-3.19c-0.1-27.66-0.07-55.33-0.06-82.99c0.01-25.15,14.43-45.9,38.17-54.13
			c5.41-1.88,11.38-2.97,17.1-3.02c33.66-0.28,67.33-0.2,100.99-0.11c25.47,0.07,48.24,18.4,53.74,43.29
			c1,4.52,1.56,9.22,1.58,13.84c0.14,27.58,0.07,55.16,0.07,82.74C272.71,140.95,272.71,141.94,272.71,143.44z M167.25,311.61
			c36.67,0,73.33-0.19,110,0.08c16.99,0.12,31.39-13.14,31.29-31.25c-0.14-26.66,0.05-53.33-0.13-80c-0.03-4-0.73-8.21-2.14-11.93
			c-4.64-12.24-15.52-19.24-29.04-19.25c-71-0.01-141.99,0-212.99,0c-2.75,0-5.5-0.04-8.25,0.01c-16.77,0.3-29.91,13.48-29.95,30.19
			c-0.06,27.33-0.1,54.66,0.08,82c0.02,3.74,0.81,7.68,2.18,11.17c4.71,12.04,15.39,18.96,28.71,18.97
			C93.75,311.63,130.5,311.61,167.25,311.61z M166.9,143.44c25.66,0,51.32-0.01,76.98,0.02c1.69,0,2.75-0.08,2.74-2.33
			c-0.08-28.66,0.07-57.32-0.12-85.98c-0.11-15.91-13.49-28.96-29.4-29c-33.49-0.07-66.98-0.06-100.48,0.04
			c-2.95,0.01-6.03,0.47-8.81,1.41c-13.07,4.45-20.73,15.29-20.75,29.2c-0.05,27.91,0.02,55.82-0.07,83.73
			c-0.01,2.56,0.92,2.96,3.18,2.95C115.74,143.41,141.32,143.44,166.9,143.44z"/>
		<path class="st0" d="M206.29,66.06c0.06,5-1.21,8.07-3.75,10.61c-11.36,11.37-22.7,22.76-34.1,34.08
			c-5.91,5.87-13.63,5.78-19.49-0.11c-6.17-6.2-12.35-12.39-18.47-18.64c-3.99-4.08-4.92-9.57-2.63-14.52
			c2.31-5,7.32-7.94,12.98-7.5c3.1,0.24,5.76,1.57,7.97,3.75c2.61,2.57,5.3,5.08,7.75,7.8c1.65,1.84,2.72,1.97,4.55,0.09
			c7.68-7.87,15.5-15.59,23.31-23.33c3.67-3.64,9.28-4.72,13.86-2.7C203.42,57.83,206.06,61.85,206.29,66.06z"/>
	</g>
</g>
</svg>
