<?xml version="1.0" encoding="utf-8"?>
<!-- Generator: Adobe Illustrator 28.2.0, SVG Export Plug-In . SVG Version: 6.00 Build 0)  -->
<svg version="1.1" id="Layer_1" xmlns="http://www.w3.org/2000/svg" xmlns:xlink="http://www.w3.org/1999/xlink" x="0px" y="0px"
	 viewBox="0 0 336.73 371.23" style="enable-background:new 0 0 336.73 371.23;" xml:space="preserve">
<style type="text/css">
	.st0{fill:#FFFFFF;}
</style>
<g id="n9A0Iw.tif">
	<g>
		<path class="st0" d="M0.02,185.36c0-45.58,0.02-91.16-0.01-136.75C0,34.07,5.13,21.77,15.97,12.04
			C24.45,4.42,34.49,0.43,45.92,0.05c0.67-0.02,1.33-0.02,2-0.02c80.33,0,160.66-0.09,240.99,0.07
			c20.03,0.04,34.49,9.71,43.42,27.56c3.42,6.84,4.4,14.23,4.4,21.83c-0.03,61.33-0.02,122.66-0.02,184c0,29.67-0.03,59.33,0.01,89
			c0.02,14.45-4.99,26.71-15.69,36.46c-8.64,7.87-18.9,12-30.61,12.23c-6.75,0.13-13.5,0.04-20.25,0.04
			c-73.91,0-147.83,0.04-221.74-0.03c-19.49-0.02-33.92-8.87-43.23-25.93c-3.91-7.17-5.21-15-5.2-23.14
			C0.05,276.53,0.02,230.95,0.02,185.36z M25.88,185.62c0,45.66-0.01,91.33,0.01,136.99c0,13.35,9.23,22.67,22.62,22.68
			c79.91,0.03,159.82,0.03,239.73,0c13.37-0.01,22.6-9.33,22.61-22.7c0.01-91.33,0.01-182.65,0-273.98
			c0-13.36-9.25-22.66-22.63-22.67c-79.91-0.03-159.82-0.02-239.73,0.02c-2.31,0-4.71,0.2-6.91,0.86
			c-9.72,2.94-15.68,11.1-15.69,21.3C25.87,93.96,25.88,139.79,25.88,185.62z"/>
		<path class="st0" d="M131.22,141.18c-14.12-13.35-20.55-29.4-18.65-48.34c1.4-13.93,7.57-25.72,17.88-35.29
			c20.28-18.83,52.41-19.75,73.64-1.88c13.06,10.99,19.98,25.13,20.33,42.27c0.34,17.14-6.37,31.34-18.89,43.26
			c1.21,0.95,2.18,1.68,3.12,2.45c15.92,13.11,24.15,29.98,24.45,50.61c0.09,6.44-4.34,11.45-10.84,12.75
			c-5.75,1.14-11.81-2.14-14.06-7.91c-0.74-1.89-0.99-4.05-1.09-6.1c-0.82-16.87-10.87-30.25-26.91-35.69
			c-19.61-6.65-42.22,4.59-48.48,24.34c-1.26,3.99-1.69,8.29-2.08,12.49c-0.62,6.69-4.25,11.36-10.38,12.72
			c-7.99,1.77-15.71-4.22-15.63-12.48c0.21-20.74,8.51-37.66,24.54-50.81C129.08,142.84,129.99,142.15,131.22,141.18z M168.42,69.16
			c-16.76-0.02-30.18,13.33-30.22,30.06c-0.04,16.61,13.52,30.26,30.11,30.3c16.58,0.04,30.18-13.54,30.22-30.18
			C198.58,82.64,185.15,69.18,168.42,69.16z"/>
		<path class="st0" d="M168.29,259.07c-25.74,0-51.48,0.03-77.21-0.02c-8.98-0.02-14.96-7.71-12.89-16.4
			c1.23-5.17,6.14-9.17,11.78-9.6c0.33-0.03,0.67-0.03,1-0.03c51.56,0,103.12-0.01,154.68,0.01c6.65,0,11.83,4.25,13.07,10.48
			c1.58,7.94-4.29,15.36-12.46,15.52c-6.66,0.13-13.33,0.04-19.99,0.04C206.94,259.07,187.62,259.07,168.29,259.07z"/>
		<path class="st0" d="M168.36,310.78c-25.9,0-51.81,0.02-77.71-0.01c-5.52-0.01-10.27-3.37-12.16-8.4
			c-1.83-4.87-0.42-10.65,3.5-14.18c2.89-2.6,6.38-3.38,10.17-3.38c25.4,0.02,50.81,0.01,76.21,0.01c25.49,0,50.97,0.01,76.46-0.01
			c5.4,0,9.8,1.86,12.54,6.69c4.94,8.7-1.35,19.24-11.55,19.26C220,310.82,194.18,310.79,168.36,310.78z"/>
	</g>
</g>
</svg>
