<?xml version="1.0" encoding="utf-8"?>
<!-- Generator: Adobe Illustrator 28.2.0, SVG Export Plug-In . SVG Version: 6.00 Build 0)  -->
<svg version="1.1" id="Layer_1" xmlns="http://www.w3.org/2000/svg" xmlns:xlink="http://www.w3.org/1999/xlink" x="0px" y="0px"
	 viewBox="0 0 336.77 273.1" style="enable-background:new 0 0 336.77 273.1;" xml:space="preserve">
<style type="text/css">
	.st0{fill:#FFFFFF;}
</style>
<g id="_x35_LPT9G.tif">
	<g>
		<path class="st0" d="M168.3,273.05c-45.5,0-90.99-0.05-136.49,0.03c-10.96,0.02-19.73-4.06-26.2-12.9
			c-3.97-5.43-5.58-11.63-5.57-18.31C0.05,225.3,0,188.71,0.06,172.13c0.03-8.31,4.82-13.31,13.13-14
			c11.12-0.92,18.24-6.8,20.88-17.22c2.77-10.93-5.47-23.56-16.6-25.39c-1.89-0.31-3.8-0.52-5.7-0.72
			c-6.18-0.67-10.91-5.37-11.59-11.53c-0.05-0.41-0.11-0.83-0.11-1.24c0.04-17.91-0.3-55.84,0.24-73.74
			C0.77,12.65,13.8,0.53,29.48,0.07c0.83-0.02,1.67-0.03,2.5-0.03c90.91,0,181.82,0.02,272.73-0.04c7.06,0,13.57,1.48,19.28,5.66
			c8.53,6.24,12.69,14.77,12.72,25.3c0.04,16.58-0.07,53.16,0.05,69.75c0.06,8.26-5.59,13.89-13.68,14.39
			c-10.85,0.67-17.82,6.83-20.4,17.07c-2.76,10.94,5.48,23.58,16.6,25.4c1.89,0.31,3.8,0.48,5.7,0.69
			c6.18,0.67,10.92,5.39,11.54,11.56c0.16,1.57,0.2,3.16,0.2,4.74c-0.04,16.83,0.28,53.67-0.28,70.49
			c-0.51,15.36-13.49,27.63-28.9,27.92c-13.91,0.26-27.83,0.09-41.75,0.09C233.29,273.06,200.79,273.05,168.3,273.05z
			 M218.62,247.19c28.66,0,57.33,0,85.99,0c4.85,0,6.25-1.42,6.25-6.26c0.01-11.92-0.05-43.83,0.05-55.75
			c0.02-2.09-0.67-3.06-2.61-3.79c-18.19-6.87-28.98-19.91-31.54-39.22c-2.94-22.21,10.22-43.04,31.48-50.45
			c1.92-0.67,2.7-1.59,2.68-3.74c-0.11-12-0.05-44-0.06-56c0-4.56-1.44-6.06-5.94-6.06c-57.49-0.01-114.99,0-172.48-0.04
			c-2.18,0-2.92,0.69-2.88,2.88c0.11,6.16,0.14,12.33-0.01,18.5c-0.18,7.61-5.96,13.33-13.14,13.24
			c-7.21-0.09-12.75-5.93-12.8-13.56c-0.04-6-0.12-12,0.04-18c0.07-2.45-0.76-3.08-3.13-3.07c-22.83,0.08-45.66,0.04-68.49,0.05
			c-4.74,0-6.14,1.41-6.14,6.11c-0.01,11.08,0.14,42.17-0.09,53.25c-0.08,3.74,0.32,6.52,4.64,7.1c0.48,0.06,0.93,0.36,1.38,0.56
			c22.74,9.9,34.16,36.47,25.62,59.62c-5.18,14.04-14.85,23.64-28.84,28.85c-1.99,0.74-2.81,1.65-2.79,3.9
			c0.13,12.08,0.05,44.16,0.07,56.25c0.01,3.95,1.52,5.63,5.34,5.64c23.33,0.04,46.66,0,69.99,0.05c1.9,0,2.42-0.72,2.4-2.51
			c-0.07-6.5-0.11-13,0.01-19.5c0.14-7.22,6.55-13.01,13.72-12.59c6.83,0.41,12.06,6.08,12.2,13.42c0.11,5.58,0.03,11.17,0.03,16.75
			c0,4.4,0,4.4,4.28,4.4C162.13,247.19,190.38,247.19,218.62,247.19z"/>
		<path class="st0" d="M103.61,116.54c0-5.58-0.03-11.16,0.01-16.74c0.05-7.49,5.36-13.16,12.58-13.49
			c6.9-0.32,13.1,5.16,13.27,12.5c0.29,11.82,0.29,63.65,0,75.47c-0.18,7.33-6.38,12.82-13.27,12.5
			c-7.21-0.33-12.53-6.01-12.58-13.5C103.58,167.7,103.61,122.12,103.61,116.54z"/>
	</g>
</g>
</svg>
