<?xml version="1.0" encoding="utf-8"?>
<!-- Generator: Adobe Illustrator 28.2.0, SVG Export Plug-In . SVG Version: 6.00 Build 0)  -->
<svg version="1.1" id="Layer_1" xmlns="http://www.w3.org/2000/svg" xmlns:xlink="http://www.w3.org/1999/xlink" x="0px" y="0px"
	 viewBox="0 0 353.08 303.46" style="enable-background:new 0 0 353.08 303.46;" xml:space="preserve">
<style type="text/css">
	.st0{fill:#0ED4A8;}
</style>
<g>
	<path class="st0" d="M221.35,160.72c-6.46-2.84-14.36-1.31-19.53,3.81c-11,10.9-22.02,21.78-32.83,32.86
		c-2.58,2.65-4.08,2.47-6.41-0.12c-3.45-3.83-7.24-7.36-10.92-10.99c-3.11-3.07-6.85-4.94-11.22-5.27
		c-7.97-0.62-15.03,3.51-18.28,10.56c-3.22,6.97-1.91,14.71,3.71,20.45c8.61,8.81,17.32,17.52,26.01,26.26
		c8.25,8.29,19.12,8.42,27.45,0.16c16.06-15.94,32.03-31.98,48.03-47.99c3.57-3.57,5.36-7.9,5.28-14.94
		C232.31,169.56,228.6,163.91,221.35,160.72z"/>
	<path class="st0" d="M339.08,303.46H14c-5.03,0-9.67-2.69-12.16-7.06c-2.49-4.36-2.45-9.73,0.1-14.06L164.48,6.89
		C167,2.62,171.59,0,176.54,0s9.54,2.62,12.06,6.89l162.54,275.46c2.55,4.33,2.59,9.69,0.1,14.06S344.11,303.46,339.08,303.46z
		 M38.52,275.46h276.05L176.54,41.55L38.52,275.46z"/>
</g>
</svg>
