<?xml version="1.0" encoding="utf-8"?>
<!-- Generator: Adobe Illustrator 28.2.0, SVG Export Plug-In . SVG Version: 6.00 Build 0)  -->
<svg version="1.1" id="Layer_1" xmlns="http://www.w3.org/2000/svg" xmlns:xlink="http://www.w3.org/1999/xlink" x="0px" y="0px"
	 viewBox="0 0 130.2 85.61" style="enable-background:new 0 0 130.2 85.61;" xml:space="preserve">
<style type="text/css">
	.st0{fill:#FFFFFF;}
</style>
<path class="st0" d="M118.91,1.77c-6.46-2.84-14.36-1.31-19.53,3.81c-11,10.9-22.02,21.78-32.83,32.86
	c-2.58,2.65-4.08,2.47-6.41-0.12C56.7,34.49,34.91,8.96,31.23,5.34c-3.11-3.07-6.85-4.94-11.22-5.27
	C12.04-0.56,4.98,3.57,1.73,10.62c-3.22,6.97-1.91,14.71,3.71,20.45c8.61,8.81,35.32,39.52,44.01,48.26
	c8.25,8.29,19.12,8.42,27.45,0.16c16.06-15.94,32.03-31.98,48.03-47.99c3.57-3.57,5.36-7.9,5.28-14.94
	C129.87,10.62,126.16,4.96,118.91,1.77z"/>
</svg>
