<?xml version="1.0" encoding="utf-8"?>
<!-- Generator: Adobe Illustrator 28.2.0, SVG Export Plug-In . SVG Version: 6.00 Build 0)  -->
<svg version="1.1" id="Layer_1" xmlns="http://www.w3.org/2000/svg" xmlns:xlink="http://www.w3.org/1999/xlink" x="0px" y="0px"
	 viewBox="0 0 294.42 281.87" style="enable-background:new 0 0 294.42 281.87;" xml:space="preserve">
<style type="text/css">
	.st0{fill:#FFFFFF;}
</style>
<g>
	<path class="st0" d="M294.4,94.37c0-6.89-1.01-13.61-3.47-20.07c-8.59-22.56-29.09-36.69-53.22-36.73c-0.22,0-3.87,0-10,0V16.5
		c0-9.11-7.39-16.5-16.5-16.5s-16.5,7.39-16.5,16.5v21.06c-28.78,0-66.47-0.01-95,0.01V16.5c0-9.11-7.39-16.5-16.5-16.5
		s-16.5,7.39-16.5,16.5v21.12c-5.31,0.01-8.49,0.03-8.8,0.05c-5.62,0.38-11.42,0.53-16.77,2.06C16.12,46.89,0.08,68.51,0.04,94.48
		C0,121.31-0.05,198.14,0.1,224.97c0.03,4.71,0.52,9.53,1.63,14.1c6.1,25.17,28.54,42.76,54.44,42.77
		c74.08,0.04,108.15,0.03,182.23-0.03c3.72,0,7.53-0.31,11.16-1.11c26.79-5.89,44.72-28.13,44.81-55.59
		C294.47,198.2,294.4,121.29,294.4,94.37z M237.25,255.82c-36.66-0.27-53.33-0.08-90-0.08c-36.75,0-53.5,0.02-90.25-0.01
		c-13.32-0.01-24-6.93-28.71-18.97c-1.36-3.48-2.15-7.43-2.18-11.17c-0.18-27.33-0.14-104.66-0.08-132
		c0.03-16.71,13.18-29.89,29.95-30.19c2.75-0.05,5.5-0.01,8.25-0.01c0.83,0,1.66,0,2.48,0v24.1c0,9.11,7.39,16.5,16.5,16.5
		s16.5-7.39,16.5-16.5V63.4c35.02,0,61.12,0,95,0v24.1c0,9.11,7.39,16.5,16.5,16.5s16.5-7.39,16.5-16.5V63.4c3.09,0,6.26,0,9.51,0
		c13.52,0,24.4,7.01,29.04,19.25c1.41,3.72,2.12,7.94,2.14,11.93c0.18,26.66-0.01,103.33,0.13,130
		C268.63,242.68,254.24,255.95,237.25,255.82z"/>
	<path class="st0" d="M192.53,126.38c-6.44-6.44-16.89-6.44-23.33,0l-22.24,22.24l-22.24-22.24c-6.44-6.44-16.89-6.44-23.33,0
		c-6.44,6.44-6.44,16.89,0,23.33l22.24,22.24l-22.24,22.24c-6.44,6.44-6.44,16.89,0,23.33c3.22,3.22,7.44,4.83,11.67,4.83
		s8.45-1.61,11.67-4.83l22.24-22.24l22.24,22.24c3.22,3.22,7.44,4.83,11.67,4.83s8.45-1.61,11.67-4.83c6.44-6.44,6.44-16.89,0-23.33
		l-22.24-22.24l22.24-22.24C198.97,143.27,198.97,132.82,192.53,126.38z"/>
</g>
</svg>
