<?xml version="1.0" encoding="utf-8"?>
<!-- Generator: Adobe Illustrator 28.2.0, SVG Export Plug-In . SVG Version: 6.00 Build 0)  -->
<svg version="1.1" id="Layer_1" xmlns="http://www.w3.org/2000/svg" xmlns:xlink="http://www.w3.org/1999/xlink" x="0px" y="0px"
	 viewBox="0 0 353.08 303.46" style="enable-background:new 0 0 353.08 303.46;" xml:space="preserve">
<style type="text/css">
	.st0{fill:#FFFFFF;}
</style>
<g>
	<path class="st0" d="M222.11,53.51c-6.44-6.44-16.89-6.44-23.33,0l-22.24,22.24L154.3,53.51c-6.44-6.44-16.89-6.44-23.33,0
		c-6.44,6.44-6.44,16.89,0,23.33l22.24,22.24l-22.24,22.24c-6.44,6.44-6.44,16.89,0,23.33c3.22,3.22,7.44,4.83,11.67,4.83
		s8.45-1.61,11.67-4.83l22.24-22.24l22.24,22.24c3.22,3.22,7.44,4.83,11.67,4.83s8.45-1.61,11.67-4.83c6.44-6.44,6.44-16.89,0-23.33
		l-22.24-22.24l22.24-22.24C228.56,70.4,228.56,59.96,222.11,53.51z"/>
	<path class="st0" d="M14,0h325.08c5.03,0,9.67,2.69,12.16,7.06c2.49,4.36,2.45,9.73-0.1,14.06L188.6,296.57
		c-2.52,4.27-7.1,6.89-12.06,6.89s-9.54-2.62-12.06-6.89L1.94,21.11c-2.55-4.33-2.59-9.69-0.1-14.06S8.97,0,14,0z M314.57,28H38.52
		l138.02,233.91L314.57,28z"/>
</g>
</svg>
