<?xml version="1.0" encoding="utf-8"?>
<!-- Generator: Adobe Illustrator 28.2.0, SVG Export Plug-In . SVG Version: 6.00 Build 0)  -->
<svg version="1.1" id="Layer_1" xmlns="http://www.w3.org/2000/svg" xmlns:xlink="http://www.w3.org/1999/xlink" x="0px" y="0px"
	 viewBox="0 0 336.7 371.2" style="enable-background:new 0 0 336.7 371.2;" xml:space="preserve">
<style type="text/css">
	.st0{fill:#FFFFFF;}
</style>
<g id="n9A0Iw.tif_00000107588813191513097630000001341655938824651394_">
	<g>
		<path class="st0" d="M0,185.4c0-45.6,0-91.2,0-136.7C0,34.1,5.1,21.8,16,12c8.5-7.6,18.5-11.6,30-12c0.7,0,1.3,0,2,0
			c80.3,0,160.7-0.1,241,0.1c20,0,34.5,9.7,43.4,27.6c3.4,6.8,4.4,14.2,4.4,21.8c0,61.3,0,122.7,0,184c0,29.7,0,59.3,0,89
			c0,14.4-5,26.7-15.7,36.5c-8.6,7.9-18.9,12-30.6,12.2c-6.7,0.1-13.5,0-20.2,0c-73.9,0-147.8,0-221.7,0c-19.5,0-33.9-8.9-43.2-25.9
			c-3.9-7.2-5.2-15-5.2-23.1C0,276.5,0,230.9,0,185.4z M25.9,185.6c0,45.7,0,91.3,0,137c0,13.4,9.2,22.7,22.6,22.7
			c79.9,0,159.8,0,239.7,0c13.4,0,22.6-9.3,22.6-22.7c0-91.3,0-182.7,0-274c0-13.4-9.3-22.7-22.6-22.7c-79.9,0-159.8,0-239.7,0
			c-2.3,0-4.7,0.2-6.9,0.9c-9.7,2.9-15.7,11.1-15.7,21.3C25.9,94,25.9,139.8,25.9,185.6z"/>
		<path class="st0" d="M131.2,141.2c-14.1-13.3-20.6-29.4-18.6-48.3c1.4-13.9,7.6-25.7,17.9-35.3c20.3-18.8,52.4-19.7,73.6-1.9
			c13.1,11,20,25.1,20.3,42.3c0.3,17.1-6.4,31.3-18.9,43.3c1.2,0.9,2.2,1.7,3.1,2.5c15.9,13.1,24.2,30,24.5,50.6
			c0.1,6.4-4.3,11.5-10.8,12.7c-5.7,1.1-11.8-2.1-14.1-7.9c-0.7-1.9-1-4-1.1-6.1c-0.8-16.9-10.9-30.2-26.9-35.7
			c-19.6-6.7-42.2,4.6-48.5,24.3c-1.3,4-1.7,8.3-2.1,12.5c-0.6,6.7-4.3,11.4-10.4,12.7c-8,1.8-15.7-4.2-15.6-12.5
			c0.2-20.7,8.5-37.7,24.5-50.8C129.1,142.8,130,142.1,131.2,141.2z M168.4,69.2c-16.8,0-30.2,13.3-30.2,30.1
			c0,16.6,13.5,30.3,30.1,30.3c16.6,0,30.2-13.5,30.2-30.2C198.6,82.6,185.1,69.2,168.4,69.2z"/>
		<path class="st0" d="M224.8,251.5c0.1,7-1.7,11.4-5.3,14.9c-16,16-32,32-48,48c-8.3,8.3-19.2,8.1-27.4-0.2
			c-8.7-8.7-17.4-17.4-26-26.3c-5.6-5.7-6.9-13.5-3.7-20.4c3.3-7,10.3-11.2,18.3-10.6c4.4,0.3,8.1,2.2,11.2,5.3
			c3.7,3.6,7.5,7.2,10.9,11c2.3,2.6,3.8,2.8,6.4,0.1c10.8-11.1,21.8-22,32.8-32.9c5.2-5.1,13.1-6.7,19.5-3.8
			C220.8,239.9,224.5,245.6,224.8,251.5z"/>
	</g>
</g>
</svg>
