<?xml version="1.0" encoding="utf-8"?>
<!-- Generator: Adobe Illustrator 28.2.0, SVG Export Plug-In . SVG Version: 6.00 Build 0)  -->
<svg version="1.1" id="Layer_1" xmlns="http://www.w3.org/2000/svg" xmlns:xlink="http://www.w3.org/1999/xlink" x="0px" y="0px"
	 viewBox="0 0 252.19 257.01" style="enable-background:new 0 0 252.19 257.01;" xml:space="preserve">
<style type="text/css">
	.st0{fill:#FFFFFF;}
</style>
<g id="AKwuGZ.tif">
	<g>
		<path class="st0" d="M126.79,232.57c44.27-2.76,76.43-21.9,95.88-60.84c2.03-4.07,3.65-8.42,4.85-12.8
			c2.09-7.61,9.03-10.93,15.88-9.15c6.67,1.73,10.16,8.8,8.02,15.92c-9.23,30.67-27.88,54.21-54.77,71.23
			C174.41,251,149.97,258,123.61,256.9c-28.01-1.16-53.24-10.46-75.13-28.14c-19.8-15.99-33.7-36.21-41.83-60.31
			c-5.97-17.68-8-35.85-5.76-54.43c3.4-28.27,14.93-52.78,34.28-73.6c6.42-6.91,16.92-5,20.5,3.67c2.07,5.01,1.13,9.58-2.63,13.59
			c-9.38,10.03-16.48,21.5-21.4,34.31c-6.39,16.61-8.15,33.72-5.4,51.3c3.8,24.29,14.54,44.97,32.58,61.69
			c13.15,12.18,28.62,20.27,46.1,24.18C112.52,230.84,120.33,231.58,126.79,232.57z"/>
		<path class="st0" d="M99.59,97.12c0-7.25-0.06-14.5,0.02-21.75c0.07-6.23,3.34-10.94,8.47-12.51c8.35-2.56,16.25,3.13,16.33,11.98
			c0.12,12.5,0.03,24.99,0.04,37.49c0,1.25-0.02,2.5,0.02,3.75c0.26,7.01,5.45,12.27,12.47,12.35c9.58,0.11,19.16-0.04,28.74,0.07
			c8.41,0.09,13.96,7.24,12.17,15.45c-1.01,4.66-5.3,8.9-10.09,9.08c-8.65,0.33-17.32,0.37-25.98,0.25
			c-4.72-0.07-9.53-0.26-14.12-1.21c-14.73-3.06-26.97-17.33-27.81-32.47c-0.42-7.47-0.07-14.99-0.07-22.49
			C99.72,97.12,99.66,97.12,99.59,97.12z"/>
		<path class="st0" d="M129.06,0c9.62,0.11,19.53,1.25,29.3,3.5c6.51,1.5,10.8,8.17,9.38,14.39c-1.72,7.54-8.13,11.57-15.9,9.74
			c-9.9-2.33-19.92-3.08-30.02-2.34c-5.38,0.39-10.76,1.2-16.03,2.33c-9.44,2.04-17.12-4.01-16.43-13.3
			c0.38-5.07,4.19-9.59,9.35-10.77C108.55,1.3,118.54,0.09,129.06,0z"/>
		<path class="st0" d="M213.29,36.45c3.3-0.09,6.23,1.32,8.61,3.87c12.97,13.89,22.58,29.78,28.59,47.83
			c1.28,3.83,2.56,7.55,0.91,11.62c-1.87,4.61-6.21,7.75-11.16,7.86c-5.32,0.12-9.78-2.52-11.77-7.25
			c-2.53-6.05-4.59-12.32-7.4-18.24c-4.15-8.77-9.77-16.63-16.37-23.77c-2.43-2.63-4.26-5.49-4.27-9.28
			C200.43,41.91,205.85,36.41,213.29,36.45z"/>
	</g>
</g>
</svg>
