<?xml version="1.0" encoding="utf-8"?>
<!-- Generator: Adobe Illustrator 28.2.0, SVG Export Plug-In . SVG Version: 6.00 Build 0)  -->
<svg version="1.1" id="Layer_1" xmlns="http://www.w3.org/2000/svg" xmlns:xlink="http://www.w3.org/1999/xlink" x="0px" y="0px"
	 viewBox="0 0 353.08 303.46" style="enable-background:new 0 0 353.08 303.46;" xml:space="preserve">
<style type="text/css">
	.st0{fill:#FFFFFF;}
</style>
<g>
	<path class="st0" d="M339.08,303.46H14c-5.03,0-9.67-2.69-12.16-7.06c-2.49-4.36-2.45-9.73,0.1-14.06L164.48,6.89
		C167,2.62,171.59,0,176.54,0s9.54,2.62,12.06,6.89l162.54,275.46c2.55,4.33,2.59,9.69,0.1,14.06S344.11,303.46,339.08,303.46z
		 M38.52,275.46h276.05L176.54,41.55L38.52,275.46z"/>
	<path class="st0" d="M249.57,251.85H103.51c-5.03,0-9.67-2.69-12.16-7.06c-2.49-4.36-2.45-9.73,0.1-14.06l73.03-123.77
		c2.52-4.27,7.1-6.89,12.06-6.89s9.54,2.62,12.06,6.89l73.03,123.77c2.55,4.33,2.59,9.69,0.1,14.06S254.6,251.85,249.57,251.85z
		 M128.03,223.85h97.03l-48.52-82.22L128.03,223.85z"/>
</g>
</svg>
