<?xml version="1.0" encoding="utf-8"?>
<!-- Generator: Adobe Illustrator 28.2.0, SVG Export Plug-In . SVG Version: 6.00 Build 0)  -->
<svg version="1.1" id="Layer_1" xmlns="http://www.w3.org/2000/svg" xmlns:xlink="http://www.w3.org/1999/xlink" x="0px" y="0px"
	 viewBox="0 0 294.42 281.87" style="enable-background:new 0 0 294.42 281.87;" xml:space="preserve">
<style type="text/css">
	.st0{fill:#FFFFFF;}
</style>
<g>
	<path class="st0" d="M294.4,94.37c0-6.89-1.01-13.62-3.47-20.07c-8.59-22.56-29.09-36.69-53.22-36.73c-0.22,0-3.87,0-10,0V16.5
		c0-9.11-7.39-16.5-16.5-16.5s-16.5,7.39-16.5,16.5v21.06c-28.78,0-66.47-0.01-95,0.01V16.5c0-9.11-7.39-16.5-16.5-16.5
		s-16.5,7.39-16.5,16.5v21.12c-5.31,0.01-8.49,0.03-8.8,0.05c-5.62,0.38-11.42,0.53-16.77,2.06C16.12,46.89,0.08,68.51,0.04,94.48
		C0,121.31-0.05,198.14,0.1,224.97c0.03,4.71,0.52,9.53,1.63,14.1c6.1,25.17,28.54,42.76,54.44,42.77
		c74.08,0.04,108.15,0.03,182.23-0.03c3.72,0,7.53-0.31,11.16-1.11c26.79-5.89,44.72-28.13,44.81-55.59
		C294.47,198.2,294.4,121.29,294.4,94.37z M237.25,255.82c-36.66-0.27-53.33-0.08-90-0.08c-36.75,0-53.5,0.02-90.25-0.01
		c-13.32-0.01-24-6.93-28.71-18.97c-1.36-3.48-2.15-7.43-2.18-11.17c-0.18-27.33-0.14-104.66-0.08-132
		c0.03-16.71,13.18-29.89,29.95-30.19c2.75-0.05,5.5-0.01,8.25-0.01c0.83,0,1.66,0,2.48,0v24.1c0,9.11,7.39,16.5,16.5,16.5
		s16.5-7.39,16.5-16.5V63.4c35.02,0,61.12,0,95,0v24.1c0,9.11,7.39,16.5,16.5,16.5s16.5-7.39,16.5-16.5V63.4c3.09,0,6.26,0,9.51,0
		c13.52,0,24.4,7.01,29.04,19.25c1.41,3.72,2.12,7.94,2.14,11.93c0.18,26.66-0.01,103.33,0.13,130
		C268.63,242.68,254.24,255.95,237.25,255.82z"/>
	<path class="st0" d="M192.02,131.5c-6.46-2.84-14.36-1.31-19.53,3.81c-11,10.9-22.02,21.78-32.83,32.86
		c-2.58,2.65-4.08,2.47-6.41-0.12c-3.45-3.83-7.24-7.36-10.92-10.99c-3.11-3.07-6.85-4.94-11.22-5.27
		c-7.97-0.62-15.03,3.51-18.28,10.56c-3.22,6.97-1.91,14.71,3.71,20.45c8.61,8.81,17.32,17.52,26.01,26.26
		c8.25,8.29,19.12,8.42,27.45,0.16c16.06-15.94,32.03-31.98,48.03-47.99c3.57-3.57,5.36-7.9,5.28-14.94
		C202.98,140.35,199.27,134.69,192.02,131.5z"/>
</g>
</svg>
